<svg xmlns:dc="http://purl.org/dc/elements/1.1/" xmlns:cc="http://creativecommons.org/ns#" xmlns:rdf="http://www.w3.org/1999/02/22-rdf-syntax-ns#" xmlns:svg="http://www.w3.org/2000/svg" xmlns="http://www.w3.org/2000/svg" id="svg7" xml:space="preserve" y="0px" x="0px" version="1.1" viewBox="255.98 283.66 511.98 200.65"><metadata id="metadata13"><rdf:RDF><cc:Work rdf:about=""><dc:format>image/svg+xml</dc:format><dc:type rdf:resource="http://purl.org/dc/dcmitype/StillImage"/></cc:Work></rdf:RDF></metadata><defs id="defs11"/><g style="stroke-width:0;stroke-miterlimit:2" transform="matrix(1.4459,0,0,1.4459,-228.32,-171.24)" stroke-miterlimit="2" id="logo-group"><path d="m 449.19,353.09 c -18.648,-0.84 -29.4,9.744 -33.264,14.616 -5.544,-8.232 -14.448,-14.616 -25.704,-14.616 -13.44,0 -23.184,6.72 -27.048,9.912 v -6.888 H 334.95 v 94.92 h 28.224 v -55.776 c 0,-7.224 7.224,-13.44 16.128,-13.44 10.416,0 14.616,7.56 14.616,12.768 v 56.28 h 28.224 v -56.28 c 0.50403,-6.888 7.56,-12.768 16.128,-12.768 10.416,0 14.616,7.56 14.616,12.768 v 56.28 H 481.11 V 386.69 c 0,-14.616 -12.432,-32.592 -31.92,-33.6 z" style="font-variant-ligatures:normal;fill:#6f5858" id="path656553"/><path d="m 573.08,413.57 c 0.672,-3.36 1.008,-6.72 1.008,-10.248 0,-3.36 -0.336,-6.552 -0.84,-9.744 -4.704,-23.016 -24.864,-40.32 -49.224,-40.32 -27.552,0 -49.896,22.512 -49.896,50.064 0,27.72 22.344,50.064 49.896,50.064 21,0 38.976,-12.936 46.368,-31.248 h -35.28 c -3.192,1.848 -7.056,3.024 -11.088,3.024 -8.232,0 -15.624,-4.704 -19.152,-11.592 z m -68.544,-19.992 c 3.696,-7.224 11.088,-12.096 19.488,-12.096 8.568,0 15.96,4.872 19.488,12.096 z" style="font-variant-ligatures:normal;fill:#8a7373" id="path656555"/><path d="M 595.95,450.86 V 356.108 H 567.726 V 450.86 Z M 581.838,347.54 c 9.24,0 16.464,-7.392 16.464,-16.464 0,-9.072 -7.224,-16.464 -16.464,-16.464 -9.072,0 -16.296,7.392 -16.296,16.464 0,9.072 7.224,16.464 16.296,16.464 z" style="font-variant-ligatures:normal;fill:#a58d8d" id="path656557"/><path d="m 660.82,356.11 v 8.4 c -4.704,-5.04 -13.272,-11.256 -26.544,-11.256 -18.648,0 -43.68,10.584 -43.68,49.728 0,24.528 13.272,50.4 46.032,50.4 10.584,0 19.152,-5.208 24.192,-9.072 v 6.552 h 28.224 V 356.11 Z m -22.176,68.04 c -11.088,0 -19.992,-9.576 -19.992,-21.168 0,-11.76 6.048,-21.336 19.992,-21.336 10.92,0 19.824,9.576 19.824,21.336 0,11.592 -8.904,21.168 -19.824,21.168 z" style="font-variant-ligatures:normal;fill:#c0a8a8" id="path656559"/></g></svg>